<mxfile host="65bd71144e">
    <diagram id="UzlfY-F97uwRzXLrC-hK" name="第 1 页">
        <mxGraphModel dx="1094" dy="506" grid="0" gridSize="10" guides="1" tooltips="1" connect="1" arrows="1" fold="1" page="1" pageScale="1" pageWidth="827" pageHeight="1169" background="#ffffff" math="0" shadow="0">
            <root>
                <mxCell id="0"/>
                <mxCell id="1" parent="0"/>
                <mxCell id="45" value="&lt;font color=&quot;#000000&quot;&gt;1&lt;/font&gt;" style="ellipse;whiteSpace=wrap;html=1;aspect=fixed;fillColor=#B3B3B3;" parent="1" vertex="1">
                    <mxGeometry x="431" y="484" width="40" height="40" as="geometry"/>
                </mxCell>
                <mxCell id="47" value="&lt;font color=&quot;#000000&quot;&gt;2&lt;/font&gt;" style="ellipse;whiteSpace=wrap;html=1;aspect=fixed;fillColor=#B3B3B3;" parent="1" vertex="1">
                    <mxGeometry x="293" y="590" width="40" height="40" as="geometry"/>
                </mxCell>
                <mxCell id="49" value="&lt;font color=&quot;#000000&quot;&gt;3&lt;/font&gt;" style="ellipse;whiteSpace=wrap;html=1;aspect=fixed;fillColor=#B3B3B3;" parent="1" vertex="1">
                    <mxGeometry x="431" y="592" width="40" height="40" as="geometry"/>
                </mxCell>
                <mxCell id="51" value="&lt;font color=&quot;#000000&quot;&gt;7&lt;br&gt;&lt;/font&gt;" style="ellipse;whiteSpace=wrap;html=1;aspect=fixed;fillColor=#B3B3B3;" parent="1" vertex="1">
                    <mxGeometry x="568" y="590" width="40" height="40" as="geometry"/>
                </mxCell>
                <mxCell id="56" value="&lt;font color=&quot;#000000&quot;&gt;5&lt;/font&gt;" style="ellipse;whiteSpace=wrap;html=1;aspect=fixed;fillColor=#B3B3B3;" parent="1" vertex="1">
                    <mxGeometry x="224" y="703" width="40" height="40" as="geometry"/>
                </mxCell>
                <mxCell id="58" value="&lt;font color=&quot;#000000&quot;&gt;6&lt;/font&gt;" style="ellipse;whiteSpace=wrap;html=1;aspect=fixed;fillColor=#B3B3B3;" parent="1" vertex="1">
                    <mxGeometry x="356" y="703" width="40" height="40" as="geometry"/>
                </mxCell>
                <mxCell id="78" value="" style="curved=1;endArrow=classic;html=1;strokeColor=#A50040;entryX=0.5;entryY=0;entryDx=0;entryDy=0;exitX=1;exitY=1;exitDx=0;exitDy=0;fillColor=#d80073;strokeWidth=2;" parent="1" source="47" target="58" edge="1">
                    <mxGeometry width="50" height="50" relative="1" as="geometry">
                        <mxPoint x="303" y="610" as="sourcePoint"/>
                        <mxPoint x="239.85786437626894" y="718.8578643762689" as="targetPoint"/>
                        <Array as="points">
                            <mxPoint x="384" y="645"/>
                        </Array>
                    </mxGeometry>
                </mxCell>
                <mxCell id="81" value="" style="curved=1;endArrow=classic;html=1;strokeColor=#A50040;entryX=0;entryY=1;entryDx=0;entryDy=0;exitX=0.5;exitY=0;exitDx=0;exitDy=0;fillColor=#d80073;strokeWidth=2;" parent="1" source="56" target="47" edge="1">
                    <mxGeometry width="50" height="50" relative="1" as="geometry">
                        <mxPoint x="326.14213562373106" y="774.927864376269" as="sourcePoint"/>
                        <mxPoint x="269" y="671.07" as="targetPoint"/>
                        <Array as="points">
                            <mxPoint x="292" y="696"/>
                        </Array>
                    </mxGeometry>
                </mxCell>
                <mxCell id="84" value="" style="curved=1;endArrow=classic;html=1;strokeColor=#A50040;exitX=0.5;exitY=0;exitDx=0;exitDy=0;entryX=1;entryY=1;entryDx=0;entryDy=0;fillColor=#d80073;strokeWidth=2;" parent="1" source="58" target="47" edge="1">
                    <mxGeometry width="50" height="50" relative="1" as="geometry">
                        <mxPoint x="355" y="729" as="sourcePoint"/>
                        <mxPoint x="353" y="625" as="targetPoint"/>
                        <Array as="points">
                            <mxPoint x="327" y="692"/>
                        </Array>
                    </mxGeometry>
                </mxCell>
                <mxCell id="89" value="" style="curved=1;endArrow=classic;html=1;strokeColor=#A50040;entryX=0;entryY=1;entryDx=0;entryDy=0;exitX=0;exitY=1;exitDx=0;exitDy=0;fillColor=#d80073;strokeWidth=2;" parent="1" source="47" edge="1">
                    <mxGeometry width="50" height="50" relative="1" as="geometry">
                        <mxPoint x="293" y="627" as="sourcePoint"/>
                        <mxPoint x="244" y="706" as="targetPoint"/>
                        <Array as="points">
                            <mxPoint x="238" y="634"/>
                        </Array>
                    </mxGeometry>
                </mxCell>
                <mxCell id="90" value="" style="curved=1;endArrow=classic;html=1;strokeColor=#A50040;entryX=0;entryY=0.5;entryDx=0;entryDy=0;exitX=0.5;exitY=0;exitDx=0;exitDy=0;fillColor=#d80073;strokeWidth=3;" parent="1" source="47" target="45" edge="1">
                    <mxGeometry width="50" height="50" relative="1" as="geometry">
                        <mxPoint x="301" y="548.86" as="sourcePoint"/>
                        <mxPoint x="355.85786437626894" y="470.0021356237311" as="targetPoint"/>
                        <Array as="points">
                            <mxPoint x="345" y="514"/>
                        </Array>
                    </mxGeometry>
                </mxCell>
                <mxCell id="91" value="" style="curved=1;endArrow=classic;html=1;strokeColor=#A50040;entryX=0.5;entryY=1;entryDx=0;entryDy=0;fillColor=#d80073;strokeWidth=2;exitX=0.5;exitY=0;exitDx=0;exitDy=0;" parent="1" source="49" target="45" edge="1">
                    <mxGeometry width="50" height="50" relative="1" as="geometry">
                        <mxPoint x="458" y="590" as="sourcePoint"/>
                        <mxPoint x="525.8578643762689" y="534.0021356237311" as="targetPoint"/>
                        <Array as="points">
                            <mxPoint x="486" y="562"/>
                        </Array>
                    </mxGeometry>
                </mxCell>
                <mxCell id="92" value="" style="curved=1;endArrow=classic;html=1;strokeColor=#A50040;entryX=0.5;entryY=0;entryDx=0;entryDy=0;exitX=0.5;exitY=1;exitDx=0;exitDy=0;fillColor=#d80073;strokeWidth=2;" parent="1" source="45" target="49" edge="1">
                    <mxGeometry width="50" height="50" relative="1" as="geometry">
                        <mxPoint x="451" y="525" as="sourcePoint"/>
                        <mxPoint x="338.85786437626894" y="664.1421356237311" as="targetPoint"/>
                        <Array as="points">
                            <mxPoint x="426" y="562"/>
                        </Array>
                    </mxGeometry>
                </mxCell>
                <mxCell id="102" value="" style="curved=1;endArrow=classic;html=1;strokeColor=#A50040;entryX=0.5;entryY=0;entryDx=0;entryDy=0;fillColor=#d80073;strokeWidth=3;" parent="1" target="51" edge="1">
                    <mxGeometry width="50" height="50" relative="1" as="geometry">
                        <mxPoint x="471" y="505" as="sourcePoint"/>
                        <mxPoint x="585.8578643762689" y="719.7178643762691" as="targetPoint"/>
                        <Array as="points">
                            <mxPoint x="559" y="515"/>
                        </Array>
                    </mxGeometry>
                </mxCell>
                <mxCell id="104" value="" style="curved=1;endArrow=classic;html=1;strokeColor=#A50040;entryX=1;entryY=0.5;entryDx=0;entryDy=0;exitX=0.5;exitY=0;exitDx=0;exitDy=0;fillColor=#d80073;strokeWidth=2;" parent="1" source="51" target="45" edge="1">
                    <mxGeometry width="50" height="50" relative="1" as="geometry">
                        <mxPoint x="481" y="509" as="sourcePoint"/>
                        <mxPoint x="612.1421356237311" y="605.8578643762689" as="targetPoint"/>
                        <Array as="points">
                            <mxPoint x="508" y="596"/>
                        </Array>
                    </mxGeometry>
                </mxCell>
                <mxCell id="107" value="&lt;b&gt;&lt;font style=&quot;font-size: 16px&quot;&gt;first[2]&lt;/font&gt;&lt;/b&gt;" style="text;html=1;align=center;verticalAlign=middle;resizable=0;points=[];autosize=1;strokeColor=none;fontColor=#000000;" parent="1" vertex="1">
                    <mxGeometry x="231" y="588" width="60" height="19" as="geometry"/>
                </mxCell>
                <mxCell id="109" value="&lt;font style=&quot;font-size: 16px&quot;&gt;&lt;b&gt;first[5]&lt;/b&gt;&lt;/font&gt;" style="text;html=1;align=center;verticalAlign=middle;resizable=0;points=[];autosize=1;strokeColor=none;fontColor=#000000;" parent="1" vertex="1">
                    <mxGeometry x="615" y="595" width="60" height="19" as="geometry"/>
                </mxCell>
                <mxCell id="110" value="" style="endArrow=classic;html=1;fontColor=#000000;strokeColor=#000000;strokeWidth=2;" parent="1" edge="1">
                    <mxGeometry width="50" height="50" relative="1" as="geometry">
                        <mxPoint x="257" y="560" as="sourcePoint"/>
                        <mxPoint x="293" y="585" as="targetPoint"/>
                    </mxGeometry>
                </mxCell>
            </root>
        </mxGraphModel>
    </diagram>
</mxfile>